<svg height="512pt" viewBox="0 0 512 512" width="512pt" xmlns="http://www.w3.org/2000/svg"><path d="m467 511.5h-90c-8.285156 0-15-6.714844-15-15v-60c0-8.285156 6.714844-15 15-15h90c8.285156 0 15 6.714844 15 15v60c0 8.285156-6.714844 15-15 15zm-14.726562-60h.011718zm0 0" fill="#001737"/><path d="m135 511.5h-90c-8.285156 0-15-6.714844-15-15v-60c0-8.285156 6.714844-15 15-15h90c8.285156 0 15 6.714844 15 15v60c0 8.285156-6.714844 15-15 15zm-14.726562-60h.011718zm0 0" fill="#00347b"/><path d="m497 451h-482c-8.285156 0-15-6.714844-15-15v-421c0-8.285156 6.714844-15 15-15h482c8.285156 0 15 6.714844 15 15v421c0 8.285156-6.714844 15-15 15zm0 0" fill="#fdbf00"/><path d="m497 0h-241.0625v451h241.0625c8.285156 0 15-6.714844 15-15v-421c0-8.285156-6.714844-15-15-15zm0 0" fill="#ff9100"/><path d="m240.183594 391h-165.183594c-8.285156 0-15-6.714844-15-15v-301c0-8.285156 6.714844-15 15-15h121l54 30.75 60-30.75h127c8.285156 0 15 6.714844 15 15v243.171875c0 3.980469-1.585938 7.800781-4.402344 10.613281-2.8125 2.808594-6.625 4.386719-10.597656 4.386719-.011719 0-.019531 0-.027344 0l-90.644531-.164063-98.738281 56.039063c-2.261719 1.28125-4.8125 1.953125-7.40625 1.953125zm0 0" fill="#f5f0eb"/><path d="m427.199219 407.5c8.261719 0 15-6.738281 15-15s-6.738281-15-15-15-15 6.738281-15 15 6.738281 15 15 15zm0 0" fill="#b20042" fill-rule="evenodd"/><path d="m367.5 407.5c8.261719 0 15-6.738281 15-15s-6.738281-15-15-15-15 6.738281-15 15 6.738281 15 15 15zm0 0" fill="#00cab1" fill-rule="evenodd"/><path d="m60.480469 71.296875c-.300781 1.1875-.480469 2.421875-.480469 3.703125v301c0 1.28125.179688 2.515625.480469 3.703125zm0 0" fill="#ebe1dc"/><path d="m437 60h-127l-54.0625 27.707031v296.601563l90.386719-51.300782 90.648437.164063h.027344c3.972656 0 7.78125-1.578125 10.597656-4.386719 2.816406-2.8125 4.402344-6.632812 4.402344-10.613281v-243.171875c0-8.285156-6.714844-15-15-15zm0 0" fill="#ebe1dc"/><path d="m256 177.5c-8.285156 0-15-6.714844-15-15v-27c0-8.285156 6.714844-15 15-15s15 6.714844 15 15v27c0 8.285156-6.714844 15-15 15zm0 0" fill="#ffcd00"/><path d="m301 150h-90c-8.285156 0-15-6.714844-15-15v-75h120v75c0 8.285156-6.714844 15-15 15zm0 0" fill="#00347b"/><path d="m320.101562 333.5h-53.203124c-8.285157 0-15-6.714844-15-15v-75c0-8.285156 6.714843-15 15-15h53.203124c8.285157 0 15 6.714844 15 15v75c0 8.285156-6.714843 15-15 15zm0 0" fill="#00aa95"/><path d="m266.898438 333.5h-75c-8.285157 0-15-6.714844-15-15v-75c0-8.285156 6.714843-15 15-15h75c8.285156 0 15 6.714844 15 15v75c0 8.285156-6.714844 15-15 15zm0 0" fill="#00eccf"/><path d="m346.324219 333.507812-206.324219-.007812c-8.285156 0-15 6.714844-15 15s6.714844 15 15 15h153.480469zm0 0" fill="#00347b"/><path d="m266.898438 228.5h-10.960938v105h10.960938c8.285156 0 15-6.714844 15-15v-75c0-8.285156-6.714844-15-15-15zm0 0" fill="#00cab1"/><path d="m256 120.5c-.019531 0-.042969.003906-.0625.003906v56.992188c.019531 0 .039062.003906.0625.003906 8.285156 0 15-6.714844 15-15v-27c0-8.285156-6.714844-15-15-15zm0 0" fill="#fdbf00"/><g fill="#001737"><path d="m255.9375 60v90h45.0625c8.285156 0 15-6.714844 15-15v-75zm0 0"/><path d="m255.9375 333.503906v29.996094h37.542969l52.84375-29.992188zm0 0"/></g></svg>